HIERARCHY
ROOT Hips
{
  OFFSET 0 0 0
  CHANNELS 6 Xposition Yposition Zposition Zrotation Yrotation Xrotation
  JOINT LeftThigh
  {
    OFFSET 8.409438 0 -5.917753
    CHANNELS 3 Zrotation Yrotation Xrotation
    JOINT LeftLeg
    {
      OFFSET 0 0 -42.358652
      CHANNELS 3 Zrotation Yrotation Xrotation
      JOINT LeftFoot
      {
        OFFSET 0 0 -39.357303
        CHANNELS 3 Zrotation Yrotation Xrotation
      }
    }
  }
  JOINT RightThigh
  {
    OFFSET -8.409438 0 -5.917753
    CHANNELS 3 Zrotation Yrotation Xrotation
    JOINT RightLeg
    {
      OFFSET 0 0 -42.358652
      CHANNELS 3 Zrotation Yrotation Xrotation
      JOINT RightFoot
      {
        OFFSET 0 0 -39.357303
        CHANNELS 3 Zrotation Yrotation Xrotation
      }
    }
  }
  JOINT SpineLow
  {
    OFFSET 0 0 4.719101
    CHANNELS 3 Zrotation Yrotation Xrotation
    JOINT SpineMid
    {
      OFFSET 0 0 12.899191
      CHANNELS 3 Zrotation Yrotation Xrotation
      JOINT Chest
      {
        OFFSET 0 0 12.899191
        CHANNELS 3 Zrotation Yrotation Xrotation
        JOINT LeftShoulder
        {
          OFFSET 7.550562 1.41573 9.438202
          CHANNELS 3 Zrotation Yrotation Xrotation
          JOINT LeftArm
          {
            OFFSET 9.155056 0 4.247191
            CHANNELS 3 Zrotation Yrotation Xrotation
            JOINT LeftForearm
            {
              OFFSET 0 0 25.771955
              CHANNELS 3 Zrotation Yrotation Xrotation
              JOINT LeftHand
              {
                OFFSET 0 0 25.197169
                CHANNELS 3 Zrotation Yrotation Xrotation
              }
            }
          }
        }
        JOINT RightShoulder
        {
          OFFSET -7.550562 1.41573 9.438202
          CHANNELS 3 Zrotation Yrotation Xrotation
          JOINT RightArm
          {
            OFFSET -9.155056 0 4.247191
            CHANNELS 3 Zrotation Yrotation Xrotation
            JOINT RightForearm
            {
              OFFSET 0 0 -25.771955
              CHANNELS 3 Zrotation Yrotation Xrotation
              JOINT RightHand
              {
                OFFSET 0 0 -25.197169
                CHANNELS 3 Zrotation Yrotation Xrotation
              }
            }
          }
        }
        JOINT Neck
        {
          OFFSET 0 0 15.101124
          CHANNELS 3 Zrotation Yrotation Xrotation
          JOINT Head
          {
            OFFSET 0 0 11.325843
            CHANNELS 3 Zrotation Yrotation Xrotation
            End Site
            {
              OFFSET 0 0 14.157303
            }
          }
        }
      }
    }
  }
}
MOTION
Frames: 16
Frame Time: 0.0
0.0  89.887642  0.0  5.970734  22.231221  -86.559554  18.380896  -37.255191  -7.070242  3.038789  46.856269  49.4846  3.453977  -2.12211  0.565627  -26.302971  0.528717  -50.572287  20.208932  4.927572  63.731988  -6.09672  0.165843  -0.344843  -0.70653  0.570893  0.734673  -1.914017  1.581625  1.991628  -1.914017  1.581625  1.991629  -7.722253  23.728229  6.487475  142.772559  42.631163  -139.452579  -14.690902  -3.411991  72.2414  84.232218  6.996751  15.881541  1.965106  -2.437169  21.332274  27.915581  61.636164  -20.390316  -11.716144  -10.608459  -78.433928  80.655439  11.137611  -8.834923  -5.807273  2.216407  1.103762  -4.358932  1.652001  0.84888  
0.0  89.887642  0.0  5.896542  22.0793  -86.664691  18.482021  -37.367474  -7.03144  3.258878  46.933595  49.649818  3.247099  -2.198328  0.571176  -26.385197  0.423655  -50.596817  20.277292  4.954068  63.730102  -5.980668  0.096527  -0.355543  -0.698869  0.563091  0.757974  -1.892747  1.560735  2.055724  -1.892747  1.560735  2.055724  -7.730924  23.600818  6.379481  142.372702  42.525725  -139.628274  -14.742619  -3.473541  72.109286  84.18211  6.899175  15.902008  1.984619  -2.395667  21.1431  28.405343  61.728521  -20.059412  -11.79283  -10.574863  -78.43665  80.717143  11.215475  -9.036944  -5.830635  2.14927  1.053439  -4.376184  1.602082  0.810588  
0.0  89.887642  0.0  5.777209  21.836595  -86.837213  18.724716  -37.571363  -6.912098  3.426295  47.001025  49.783039  3.091426  -2.224911  0.546156  -26.345728  0.322484  -50.550957  20.202365  5.102964  63.704136  -5.737219  0.062873  -0.360113  -0.68275  0.550193  0.784664  -1.848453  1.525731  2.129419  -1.848453  1.525731  2.129419  -7.663448  23.481576  6.298476  141.851841  42.429678  -139.69295  -14.820514  -3.610764  71.899234  84.136454  6.848305  15.897598  1.749332  -2.443527  20.883859  28.527237  61.871896  -19.94837  -11.538054  -10.684613  -78.608506  80.75278  11.258889  -9.232415  -5.787431  2.104927  1.014951  -4.343595  1.569257  0.781152  
0.0  89.887642  0.0  5.717756  21.761638  -86.889793  18.878966  -37.710687  -6.904729  3.503037  47.092192  49.789268  2.941327  -2.27181  0.52722  -26.469416  0.234955  -50.612075  20.229554  5.120263  63.729939  -5.619807  0.014255  -0.372683  -0.704558  0.547095  0.803794  -1.907719  1.518511  2.18129  -1.907719  1.518511  2.18129  -7.546811  23.351253  6.131117  141.53527  42.349467  -139.845319  -14.837821  -3.631959  71.83671  84.074452  6.765102  15.941166  1.877083  -2.362032  20.69301  28.622648  61.934313  -19.968879  -11.463118  -10.76214  -78.704043  80.688353  11.300432  -9.285247  -5.769237  2.000627  0.95612  -4.329631  1.491607  0.735989  
0.0  89.887642  0.0  5.609248  21.619901  -86.980106  19.20718  -37.919282  -6.873664  3.412831  47.215535  49.670497  2.842715  -2.284649  0.49344  -26.743495  -0.010004  -50.748948  20.542641  4.944398  63.834327  -5.692855  -0.072663  -0.39396  -0.718903  0.534815  0.822116  -1.946909  1.485958  2.231391  -1.946909  1.485958  2.231391  -7.571896  23.245938  5.905614  141.410158  42.209579  -139.847768  -14.776399  -3.660545  71.787355  84.045346  6.806082  15.881145  1.601325  -2.324767  20.387747  28.421842  62.058204  -20.2018  -11.186716  -10.930681  -78.909524  80.527008  11.307323  -9.477835  -5.696438  1.928134  0.92191  -4.274846  1.43766  0.709419  
0.0  89.887642  0.0  5.584813  21.673121  -86.943991  19.373411  -38.042127  -6.981813  3.467173  47.299784  49.655732  2.724834  -2.31603  0.473585  -26.902512  -0.046947  -50.858134  20.547279  4.874733  63.856698  -5.667682  -0.122163  -0.373289  -0.752559  0.535708  0.825537  -2.0388  1.489634  2.239948  -2.038799  1.489634  2.239948  -7.478899  23.150602  5.747838  141.243571  42.129654  -139.9356  -14.747202  -3.640831  71.764168  83.995803  6.776328  15.900146  1.73229  -2.239338  20.249483  28.312603  62.12174  -20.38637  -11.107821  -10.994846  -79.039025  80.444821  11.295048  -9.450187  -5.718213  1.810883  0.899839  -4.29098  1.349887  0.691844  
0.0  89.887642  0.0  5.500264  21.686189  -86.940804  19.732044  -38.214335  -7.056822  3.051111  47.460137  49.260318  2.700203  -2.309179  0.447455  -27.048088  -0.234793  -50.934507  20.582632  4.830841  63.853361  -5.634034  -0.133362  -0.339709  -0.765489  0.521706  0.823611  -2.074647  1.451746  2.234816  -2.074647  1.451746  2.234815  -7.640773  23.124651  5.578744  141.230959  42.01314  -139.863886  -14.689811  -3.634085  71.718682  84.086704  6.866756  15.943246  1.35391  -2.196213  19.999704  28.266159  62.231956  -20.534309  -11.346195  -10.913003  -78.993176  80.270548  11.3462  -9.953071  -5.752186  1.741399  0.905801  -4.3164  1.297664  0.695767  
0.0  89.887642  0.0  5.468437  21.825804  -86.880175  19.856787  -38.334569  -7.200434  3.090358  47.545382  49.205107  2.636878  -2.356466  0.441247  -27.187246  -0.251133  -51.021752  20.567341  4.685826  63.86079  -5.645534  -0.15563  -0.304793  -0.781245  0.521656  0.819907  -2.117799  1.452022  2.224342  -2.117799  1.452022  2.224342  -7.708124  23.066586  5.441629  141.155426  41.948045  -139.917478  -14.672752  -3.566645  71.687776  83.989418  6.837689  15.88398  1.377278  -2.171647  19.873757  28.100923  62.336349  -20.636175  -11.368319  -10.859033  -79.113493  80.279534  11.370298  -9.993529  -5.886277  1.622839  0.899675  -4.416813  1.2086  0.690422  
0.0  89.887642  0.0  5.366491  21.897863  -86.905444  20.137493  -38.494984  -7.33938  2.581702  47.687242  48.729948  2.79736  -2.279748  0.485886  -27.28055  -0.380775  -51.040182  20.685213  4.522718  63.901613  -5.69191  -0.164027  -0.286183  -0.800172  0.512989  0.814094  -2.169947  1.42878  2.208306  -2.169947  1.42878  2.208306  -7.804894  23.045808  5.317203  140.971129  41.849061  -139.896129  -14.840835  -3.648123  71.511119  83.853209  6.887005  15.789347  0.964741  -2.202451  19.613668  28.010703  62.489465  -20.678584  -11.369269  -10.812405  -79.261666  80.20567  11.413822  -10.362182  -5.937754  1.541243  0.923658  -4.455388  1.14709  0.707759  
0.0  89.887642  0.0  5.289112  22.02729  -86.869698  20.377096  -38.633065  -7.523127  2.442147  47.737639  48.600306  2.761076  -2.299749  0.484408  -27.297803  -0.374806  -51.093966  20.571621  4.494156  63.927357  -5.711519  -0.175489  -0.260753  -0.813727  0.5051  0.812377  -2.207293  1.407616  2.203573  -2.207293  1.407616  2.203572  -7.852407  23.030249  5.166058  140.879807  41.767605  -140.002657  -14.978298  -3.517101  71.491746  83.660537  6.881158  15.750522  1.040489  -2.144611  19.478496  27.849326  62.591958  -20.723372  -11.431359  -10.735588  -79.37009  80.185816  11.470298  -10.444632  -6.071142  1.433608  0.897368  -4.555236  1.066419  0.687317  
0.0  89.887642  0.0  5.144793  22.024305  -86.881105  20.746793  -38.746236  -7.748216  2.016916  47.719922  48.258231  2.836223  -2.217691  0.513756  -27.207958  -0.456146  -51.124781  20.492149  4.56008  64.006355  -5.705873  -0.194687  -0.265784  -0.845489  0.489027  0.793729  -2.295024  1.364101  2.152459  -2.295024  1.364101  2.152459  -7.875322  23.056642  5.015162  140.889594  41.617096  -140.022021  -15.189641  -3.438036  71.419626  83.59336  6.971595  15.793834  0.769814  -2.12099  19.235005  27.78024  62.759658  -20.698877  -11.205187  -10.801772  -79.624229  80.085318  11.53962  -10.723643  -6.071787  1.390594  0.915281  -4.555712  1.033976  0.700328  
0.0  89.887642  0.0  5.020312  22.041976  -86.789147  21.130662  -38.833227  -8.010774  1.695869  47.707956  48.004585  2.790295  -2.188675  0.52403  -27.052375  -0.4964  -51.231661  20.255626  4.789954  64.079614  -5.636749  -0.221556  -0.280691  -0.846864  0.475196  0.780281  -2.299494  1.325884  2.116142  -2.299494  1.325884  2.116142  -7.875487  23.063455  4.831032  140.877863  41.494454  -140.137453  -15.36415  -3.254639  71.41728  83.496784  6.964598  15.83364  0.935371  -2.050052  19.083945  27.636611  62.878923  -20.674168  -11.234454  -10.773651  -79.716816  80.028211  11.605498  -10.755835  -6.212673  1.278806  0.874285  -4.661152  0.950335  0.668771  
0.0  89.887642  0.0  4.836028  21.797883  -86.726885  21.61879  -38.876682  -8.28514  1.240081  47.633099  47.593156  2.92396  -2.016225  0.595661  -26.621999  -0.564281  -51.344664  19.992182  5.077759  64.234213  -5.545386  -0.279506  -0.352503  -0.887709  0.47027  0.727258  -2.412361  1.311797  1.970555  -2.412361  1.311797  1.970555  -7.678509  23.03425  4.701923  140.848021  41.292874  -140.228925  -15.737744  -3.375963  71.220743  83.46116  6.994514  15.823952  0.807192  -2.042327  18.86266  27.771481  63.054397  -20.457461  -10.857562  -10.881329  -80.046962  79.943574  11.689365  -10.84641  -6.103472  1.184331  0.940442  -4.579276  0.878963  0.71722  
0.0  89.887642  0.0  4.712396  21.542008  -86.505524  22.108081  -38.85782  -8.576056  0.811215  47.60774  47.172763  2.908011  -1.913727  0.625349  -26.155503  -0.691195  -51.631389  19.618212  5.609071  64.4536  -5.369  -0.315263  -0.447525  -0.834962  0.464583  0.692581  -2.26903  1.293507  1.877021  -2.26903  1.293507  1.877021  -7.771289  23.004988  4.474935  140.872566  41.109271  -140.467547  -15.898312  -3.248832  71.384305  83.477314  7.035809  15.886047  0.935586  -1.978964  18.689418  27.741006  63.180732  -20.248709  -11.00025  -10.667136  -80.095642  79.987962  11.771473  -10.662074  -6.328308  1.038528  0.891152  -4.747627  0.769768  0.679187  
0.0  89.887642  0.0  4.60064  21.095756  -86.259253  22.56816  -38.710645  -8.826991  0.202931  47.552421  46.534657  3.094139  -1.707294  0.697617  -25.627087  -0.938634  -51.985988  19.320332  6.009342  64.74353  -5.297412  -0.263506  -0.568752  -0.796551  0.482107  0.645874  -2.16451  1.338791  1.749553  -2.16451  1.338791  1.749552  -7.835137  22.827548  4.193714  140.916396  40.861841  -140.795247  -16.221131  -3.270038  71.662216  83.564959  7.109326  16.033111  0.872448  -2.012469  18.395702  27.72213  63.381773  -19.943754  -10.815982  -10.449037  -80.395598  80.000312  11.933743  -10.507124  -6.418878  0.852819  0.852503  -4.81527  0.630744  0.648408  
0.0  89.887642  0.0  4.50379  20.453264  -86.026949  23.112036  -38.590865  -8.880091  -0.311984  47.454275  45.896164  3.099969  -1.568503  0.719309  -24.871844  -1.276194  -52.423947  19.092674  6.413196  65.218821  -5.110741  -0.171447  -0.764861  -0.677349  0.505117  0.62705  -1.838479  1.39802  1.69991  -1.838478  1.39802  1.69991  -8.19578  22.625936  3.711284  141.03125  40.59663  -141.250247  -16.435351  -3.142126  72.287144  83.635255  7.172655  16.301467  0.966798  -2.120779  18.073085  28.369986  63.640411  -19.084206  -11.347072  -9.821346  -80.225839  79.798036  12.243468  -10.475603  -6.66995  0.634712  0.731708  -5.00318  0.468115  0.555782  
